<?xml version="1.0" standalone="no"?><!DOCTYPE svg PUBLIC "-//W3C//DTD SVG 1.1//EN" "http://www.w3.org/Graphics/SVG/1.1/DTD/svg11.dtd"><svg xmlns:xlink="http://www.w3.org/1999/xlink" xmlns="http://www.w3.org/2000/svg" version="1.1" width="209.765625" height="200" viewBox="0 0 209.765625 200"><defs><style type="text/css"><![CDATA[
@font-face {
  font-family: "ifont";
  src: url("//at.alicdn.com/t/font_1442373896_4754455.eot?#iefix") format("embedded-opentype"), url("//at.alicdn.com/t/font_1442373896_4754455.woff") format("woff"), url("//at.alicdn.com/t/font_1442373896_4754455.ttf") format("truetype"), url("//at.alicdn.com/t/font_1442373896_4754455.svg#ifont") format("svg");
}

]]></style></defs><g class="transform-group"><g transform="scale(0.1953125, 0.1953125)"><path d="M894.011372 0.293693l-714.674573 0c-49.319614 0-94.16817 20.183075-126.661131 52.675667-32.480997 32.492654-52.675667 77.341579-52.675667 126.661131l0 471.375253c0 49.319614 20.183075 94.16817 52.675667 126.661131 32.492654 32.492654 77.341579 52.675667 126.661131 52.675667l225.625417 0 2.427079 0 1.300633 2.078693c5.063181 8.047682 11.833465 14.99214 19.753406 20.275966 7.7225 5.156085 16.606327 8.767682 26.093948 10.323766l3.716097 0.603866 0 3.750934 0 68.469042 0 4.424476-4.424476 0-147.866011 0c-24.166237 0-46.137685 9.894097-62.058678 25.803678-14.934098 14.945694-24.561056 35.22166-25.687533 57.634373l636.89492 0c-1.12644-22.412713-10.753434-42.688679-25.687533-57.634373-15.909519-15.909519-37.892563-25.803678-62.04702-25.803678l-147.854353 0-4.424476 0 0-4.424476 0-68.469042 0-3.750934 3.716097-0.603866c9.487682-1.556115 18.371447-5.167699 26.093948-10.323766 7.919941-5.283826 14.690212-12.228284 19.753406-20.275966l1.312247-2.078693 2.415464 0 225.625417 0c49.319614 0 94.16817-20.194671 126.661131-52.675667 32.492654-32.492654 52.675667-77.341579 52.675667-126.661131l0-471.375253c0-49.319614-20.194671-94.16817-52.675667-126.661131-32.492654-32.480997-77.341579-52.675667-126.661131-52.675667zm-705.477468 419.22233l125.615643 0 130.597664-226.194177 155.03104 338.408675 61.780126-106.97724 219.087435 0 0 44.744131-193.376649 0-92.008477 159.374356-155.100372-338.501935-100.380971 173.890321-151.245441 0 0-44.744131zm-63.475363-273.225804l823.266676 0 0 543.583878-823.266676 0 0-543.583878z" fill="#33475f"></path></g></g></svg>